<?xml version="1.0" encoding="UTF-8" standalone="no"?>
<!DOCTYPE svg PUBLIC "-//W3C//DTD SVG 20010904//EN"
              "http://www.w3.org/TR/2001/REC-SVG-20010904/DTD/svg10.dtd">

<svg xmlns="http://www.w3.org/2000/svg"
     width="5.19444in" height="7.44444in"
     viewBox="0 0 374 536">
  <path id="Seleção #1"
        fill="none" stroke="black" stroke-width="1"
        d="M 173.00,0.00
           C 173.00,0.00 205.00,0.00 205.00,0.00
             213.32,0.01 220.22,1.24 225.00,9.00
             228.13,14.10 228.99,24.98 229.00,31.00
             229.00,31.00 229.00,129.00 229.00,129.00
             229.00,131.18 229.37,135.53 227.40,136.94
             225.23,138.49 221.15,136.61 219.00,135.72
             219.00,135.72 198.00,127.00 198.00,127.00
             201.46,120.79 200.00,105.56 200.00,98.00
             200.00,98.00 200.00,32.00 200.00,32.00
             200.00,32.00 29.00,32.00 29.00,32.00
             29.00,32.00 29.00,295.00 29.00,295.00
             29.00,295.00 200.00,295.00 200.00,295.00
             200.00,295.00 200.00,271.00 200.00,271.00
             200.00,271.00 229.00,271.00 229.00,271.00
             229.00,271.00 229.00,331.00 229.00,331.00
             229.00,340.11 229.60,355.72 226.44,364.00
             222.36,374.68 213.23,376.98 203.00,377.00
             203.00,377.00 48.00,377.00 48.00,377.00
             48.00,377.00 31.00,378.00 31.00,378.00
             12.59,377.78 0.03,372.44 0.00,352.00
             0.00,352.00 0.00,0.00 0.00,0.00
             0.00,0.00 173.00,0.00 173.00,0.00 Z
           M 203.00,394.00
           C 207.59,393.99 211.57,393.87 216.00,392.40
             234.12,386.40 245.97,366.46 246.00,348.00
             246.00,348.00 246.00,282.00 246.00,282.00
             245.99,273.09 243.23,259.87 234.54,255.23
             231.91,253.83 226.98,254.00 224.00,253.92
             224.00,253.92 206.14,253.92 206.14,253.92
             195.80,253.64 172.94,253.84 164.00,250.22
             159.28,248.31 155.19,244.84 151.96,240.97
             150.17,238.82 148.32,236.35 147.35,233.72
             146.54,231.51 145.51,226.45 145.36,224.09
             145.36,224.09 146.17,213.00 146.17,213.00
             148.22,198.58 155.32,196.28 167.00,191.42
             174.94,188.12 177.42,187.88 185.99,188.16
             185.99,188.16 215.28,188.16 215.28,188.16
             215.28,188.16 230.00,189.00 230.00,189.00
             242.92,189.02 267.61,188.03 278.41,195.16
             282.31,197.73 284.09,200.78 287.19,204.09
             292.92,210.21 300.17,217.44 304.01,225.00
             309.36,235.55 308.60,247.69 311.37,259.00
             311.37,259.00 319.80,303.00 319.80,303.00
             319.80,303.00 325.91,334.00 325.91,334.00
             326.51,342.77 323.02,357.89 319.57,366.00
             313.44,380.45 294.45,396.55 283.00,408.00
             283.00,408.00 235.00,456.00 235.00,456.00
             235.00,456.00 210.00,480.82 210.00,480.82
             202.14,487.69 194.13,489.33 184.00,488.15
             180.38,487.73 178.38,487.73 175.00,485.95
             168.39,482.48 159.76,471.76 154.00,466.00
             154.00,466.00 113.00,425.00 113.00,425.00
             104.05,416.05 91.25,405.94 87.00,394.00
             87.00,394.00 203.00,394.00 203.00,394.00 Z
           M 85.00,321.00
           C 85.00,321.00 85.00,339.00 85.00,339.00
             85.00,339.00 155.00,339.00 155.00,339.00
             155.00,339.00 155.00,321.00 155.00,321.00
             155.00,321.00 85.00,321.00 85.00,321.00 Z
           M 358.00,383.57
           C 360.70,384.86 362.88,386.90 364.96,389.02
             373.09,397.30 376.92,408.06 371.32,419.00
             368.92,423.69 363.72,428.15 360.04,432.00
             360.04,432.00 342.00,451.00 342.00,451.00
             342.00,451.00 281.00,512.00 281.00,512.00
             268.97,524.03 260.39,536.43 242.00,535.99
             228.37,535.65 217.46,522.27 218.04,509.00
             218.64,495.26 233.89,482.11 243.00,473.00
             243.00,473.00 305.00,411.00 305.00,411.00
             313.40,402.60 327.35,386.66 338.00,382.64
             342.95,381.64 353.45,381.40 358.00,383.57 Z" />
</svg>
