<?xml version="1.0" encoding="UTF-8" standalone="no"?>
<!DOCTYPE svg PUBLIC "-//W3C//DTD SVG 20010904//EN"
              "http://www.w3.org/TR/2001/REC-SVG-20010904/DTD/svg10.dtd">

<svg xmlns="http://www.w3.org/2000/svg"
     width="17.0417in" height="7.44444in"
     viewBox="0 0 1227 536">
  <path id="Seleção"
        fill="none" stroke="black" stroke-width="1"
        d="M 173.00,0.00
           C 173.00,0.00 205.00,0.00 205.00,0.00
             213.32,0.01 220.22,1.24 225.00,9.00
             228.13,14.10 228.99,24.98 229.00,31.00
             229.00,31.00 229.00,129.00 229.00,129.00
             229.00,131.18 229.37,135.53 227.40,136.94
             225.23,138.49 221.15,136.61 219.00,135.72
             219.00,135.72 198.00,127.00 198.00,127.00
             201.46,120.79 200.00,105.56 200.00,98.00
             200.00,98.00 200.00,32.00 200.00,32.00
             200.00,32.00 29.00,32.00 29.00,32.00
             29.00,32.00 29.00,295.00 29.00,295.00
             29.00,295.00 200.00,295.00 200.00,295.00
             200.00,295.00 200.00,271.00 200.00,271.00
             200.00,271.00 229.00,271.00 229.00,271.00
             229.00,271.00 229.00,331.00 229.00,331.00
             229.00,340.11 229.60,355.72 226.44,364.00
             222.36,374.68 213.23,376.98 203.00,377.00
             203.00,377.00 48.00,377.00 48.00,377.00
             48.00,377.00 31.00,378.00 31.00,378.00
             12.59,377.78 0.03,372.44 0.00,352.00
             0.00,352.00 0.00,0.00 0.00,0.00
             0.00,0.00 173.00,0.00 173.00,0.00 Z
           M 203.00,394.00
           C 207.59,393.99 211.57,393.87 216.00,392.40
             234.12,386.40 245.97,366.46 246.00,348.00
             246.00,348.00 246.00,282.00 246.00,282.00
             245.99,273.09 243.23,259.87 234.54,255.23
             231.91,253.83 226.98,254.00 224.00,253.92
             224.00,253.92 206.14,253.92 206.14,253.92
             195.80,253.64 172.94,253.84 164.00,250.22
             159.28,248.31 155.19,244.84 151.96,240.97
             150.17,238.82 148.32,236.35 147.35,233.72
             146.54,231.51 145.51,226.45 145.36,224.09
             145.36,224.09 146.17,213.00 146.17,213.00
             148.22,198.58 155.32,196.28 167.00,191.42
             174.94,188.12 177.42,187.88 185.99,188.16
             185.99,188.16 215.28,188.16 215.28,188.16
             215.28,188.16 230.00,189.00 230.00,189.00
             242.92,189.02 267.61,188.03 278.41,195.16
             282.31,197.73 284.09,200.78 287.19,204.09
             293.28,210.60 299.91,216.92 304.01,225.00
             309.43,235.69 308.57,247.58 311.37,259.00
             311.37,259.00 319.80,303.00 319.80,303.00
             319.80,303.00 325.91,334.00 325.91,334.00
             326.51,342.77 323.02,357.89 319.57,366.00
             313.44,380.45 294.45,396.55 283.00,408.00
             283.00,408.00 235.00,456.00 235.00,456.00
             235.00,456.00 210.00,480.82 210.00,480.82
             202.14,487.69 194.13,489.33 184.00,488.15
             180.38,487.73 178.38,487.73 175.00,485.95
             168.39,482.48 159.76,471.76 154.00,466.00
             154.00,466.00 113.00,425.00 113.00,425.00
             104.05,416.05 91.25,405.94 87.00,394.00
             87.00,394.00 203.00,394.00 203.00,394.00 Z
           M 911.00,191.15
           C 911.00,191.15 924.00,191.15 924.00,191.15
             939.32,191.07 957.25,197.53 969.00,207.32
             989.05,224.04 999.96,250.06 1000.00,276.00
             1000.00,276.00 1000.00,295.00 1000.00,295.00
             999.71,319.61 987.35,346.24 968.00,361.48
             949.30,376.22 931.59,377.26 909.00,377.00
             902.49,376.92 894.18,375.08 888.00,373.00
             854.32,361.67 834.05,327.78 834.00,293.00
             834.00,293.00 834.00,276.00 834.00,276.00
             834.04,251.36 843.89,226.88 862.00,210.09
             866.99,205.46 871.97,202.20 878.00,199.11
             886.35,194.82 893.90,193.11 903.00,191.15
             903.00,191.15 911.00,191.15 911.00,191.15 Z
           M 747.86,402.89
           C 749.86,400.84 750.95,398.80 751.06,396.00
             751.12,394.41 750.70,392.51 750.24,391.00
             749.47,388.50 748.31,386.21 746.93,384.00
             742.00,376.12 737.35,378.11 729.00,376.72
             722.36,375.61 713.05,372.68 707.00,369.74
             678.65,355.96 662.05,325.09 662.00,294.00
             662.00,294.00 662.00,277.00 662.00,277.00
             662.05,246.51 677.28,215.50 705.00,201.26
             727.30,189.80 759.38,189.09 783.00,196.74
             788.27,198.45 803.38,204.63 805.98,209.18
             807.20,211.33 807.00,214.57 807.00,217.00
             807.00,217.00 807.00,235.00 807.00,235.00
             807.00,235.00 795.00,226.44 795.00,226.44
             785.25,219.57 773.85,214.89 762.00,213.29
             744.38,210.91 725.08,213.58 711.00,225.32
             694.42,239.16 690.31,257.61 688.91,278.00
             688.91,278.00 688.18,285.00 688.18,285.00
             688.18,285.00 688.91,292.00 688.91,292.00
             691.01,322.56 701.89,348.82 735.00,355.99
             735.00,355.99 752.00,357.79 752.00,357.79
             763.59,357.19 776.82,354.23 787.00,348.56
             787.00,348.56 807.00,335.00 807.00,335.00
             807.00,335.00 807.00,354.00 807.00,354.00
             806.94,363.03 802.79,364.47 795.00,368.22
             784.89,373.08 771.19,377.09 760.00,378.00
             764.60,385.36 768.76,389.84 768.99,399.00
             769.06,401.93 769.05,405.18 768.20,408.00
             762.36,427.38 733.88,421.97 719.00,420.00
             719.00,420.00 719.00,402.89 719.00,402.89
             727.70,404.98 740.24,410.10 747.86,402.89 Z
           M 338.32,332.00
           C 338.32,332.00 375.32,235.00 375.32,235.00
             375.32,235.00 386.68,205.00 386.68,205.00
             389.23,198.11 389.19,194.14 397.00,194.00
             397.00,194.00 413.00,194.00 413.00,194.00
             420.62,194.15 420.27,196.12 423.95,206.00
             423.95,206.00 436.81,240.00 436.81,240.00
             436.81,240.00 488.00,374.00 488.00,374.00
             488.00,374.00 461.00,374.00 461.00,374.00
             461.00,374.00 450.33,343.00 450.33,343.00
             449.23,339.71 446.95,331.73 444.50,329.60
             442.29,327.67 438.76,328.01 436.00,328.00
             436.00,328.00 374.00,328.00 374.00,328.00
             371.79,328.00 368.29,327.78 366.42,329.02
             363.94,330.66 362.63,336.19 361.66,339.00
             361.66,339.00 353.69,361.00 353.69,361.00
             350.14,370.98 350.91,373.86 343.00,374.00
             343.00,374.00 323.00,374.00 323.00,374.00
             323.00,374.00 338.32,332.00 338.32,332.00 Z
           M 563.00,194.00
           C 578.44,194.00 592.93,193.71 607.00,201.51
             627.27,212.75 629.24,230.26 629.00,251.00
             628.90,259.49 626.18,268.08 621.21,275.00
             615.17,283.43 608.87,285.81 600.00,290.00
             619.95,298.91 630.88,328.27 640.25,347.00
             643.57,353.64 651.20,367.69 653.00,374.00
             653.00,374.00 634.00,374.00 634.00,374.00
             631.87,374.00 628.42,374.25 626.63,373.01
             624.41,371.45 618.83,359.17 617.25,356.00
             610.93,343.36 598.53,315.95 588.96,307.18
             575.94,295.24 553.50,298.00 537.00,298.00
             537.00,298.00 537.00,374.00 537.00,374.00
             537.00,374.00 513.00,374.00 513.00,374.00
             513.00,374.00 513.00,194.00 513.00,194.00
             513.00,194.00 563.00,194.00 563.00,194.00 Z
           M 1075.00,194.00
           C 1075.00,194.00 1094.58,247.00 1094.58,247.00
             1094.58,247.00 1120.00,314.00 1120.00,314.00
             1120.00,314.00 1133.42,279.00 1133.42,279.00
             1133.42,279.00 1154.95,222.00 1154.95,222.00
             1154.95,222.00 1162.05,203.00 1162.05,203.00
             1162.05,203.00 1166.41,195.02 1166.41,195.02
             1166.41,195.02 1174.00,194.00 1174.00,194.00
             1174.00,194.00 1202.00,194.00 1202.00,194.00
             1202.00,194.00 1202.00,374.00 1202.00,374.00
             1202.00,374.00 1178.00,374.00 1178.00,374.00
             1178.00,374.00 1178.00,270.00 1178.00,270.00
             1178.00,270.00 1178.00,238.00 1178.00,238.00
             1178.00,238.00 1177.00,220.00 1177.00,220.00
             1177.00,220.00 1165.05,254.00 1165.05,254.00
             1165.05,254.00 1143.58,311.00 1143.58,311.00
             1143.58,311.00 1133.00,340.00 1133.00,340.00
             1133.00,340.00 1107.00,340.00 1107.00,340.00
             1107.00,340.00 1085.42,282.00 1085.42,282.00
             1085.42,282.00 1070.42,242.00 1070.42,242.00
             1070.42,242.00 1062.00,220.00 1062.00,220.00
             1062.00,220.00 1062.00,374.00 1062.00,374.00
             1062.00,374.00 1038.00,374.00 1038.00,374.00
             1038.00,374.00 1038.00,194.00 1038.00,194.00
             1038.00,194.00 1075.00,194.00 1075.00,194.00 Z
           M 891.00,217.51
           C 869.23,229.59 862.49,252.99 860.91,276.00
             860.91,276.00 860.08,284.00 860.08,284.00
             860.08,284.00 861.92,304.00 861.92,304.00
             866.31,330.10 881.72,353.45 910.00,356.07
             913.50,356.40 915.39,357.04 919.00,356.70
             927.60,355.89 935.25,354.84 943.00,350.68
             971.85,335.20 976.98,293.09 972.08,264.00
             967.39,236.12 952.61,214.99 923.00,211.84
             919.19,211.43 919.11,211.09 915.00,211.30
             905.32,212.63 900.13,212.45 891.00,217.51 Z
           M 590.00,272.52
           C 607.38,261.99 606.98,228.83 589.00,218.90
             577.18,212.37 550.95,214.00 537.00,214.00
             537.00,214.00 537.00,278.00 537.00,278.00
             551.35,278.00 578.00,279.79 590.00,272.52 Z
           M 391.95,255.00
           C 391.95,255.00 373.00,308.00 373.00,308.00
             373.00,308.00 437.00,308.00 437.00,308.00
             437.00,308.00 420.05,260.00 420.05,260.00
             420.05,260.00 405.00,221.00 405.00,221.00
             405.00,221.00 391.95,255.00 391.95,255.00 Z
           M 85.00,321.00
           C 85.00,321.00 85.00,339.00 85.00,339.00
             85.00,339.00 155.00,339.00 155.00,339.00
             155.00,339.00 155.00,321.00 155.00,321.00
             155.00,321.00 85.00,321.00 85.00,321.00 Z
           M 358.00,383.57
           C 360.70,384.86 362.88,386.90 364.96,389.02
             373.09,397.30 376.92,408.06 371.32,419.00
             368.92,423.69 363.72,428.15 360.04,432.00
             360.04,432.00 342.00,451.00 342.00,451.00
             342.00,451.00 281.00,512.00 281.00,512.00
             268.97,524.03 260.39,536.43 242.00,535.99
             228.37,535.65 217.46,522.27 218.04,509.00
             218.64,495.26 233.89,482.11 243.00,473.00
             243.00,473.00 305.00,411.00 305.00,411.00
             313.40,402.60 327.35,386.66 338.00,382.64
             342.95,381.64 353.45,381.40 358.00,383.57 Z" />
</svg>
